<svg width="251" height="219" viewBox="0 0 251 219" fill="none" xmlns="http://www.w3.org/2000/svg">
<path d="M192.73 25.5202L124.73 0.470215L57.3799 25.1902C48.7799 29.3502 41.2399 31.8502 41.2399 40.0602V81.0002C41.0997 109.652 48.7713 137.801 63.4299 162.42C75.9899 183.33 95.4299 204.86 125.43 218.55C152.96 209.38 173.51 184.93 186.07 164.01C200.73 139.395 208.401 111.25 208.26 82.6002V45.7802C208.21 34.0602 202.16 28.3402 192.73 25.5202Z" fill="#D40020"/>
<g opacity="0.8">
<path opacity="0.8" d="M192.73 25.5202L124.73 0.470215L57.3799 25.1902C48.7799 29.3502 41.2399 31.8502 41.2399 40.0602V81.0002C41.0997 109.652 48.7713 137.801 63.4299 162.42C75.9899 183.33 95.4299 204.86 125.43 218.55C152.96 209.38 173.51 184.93 186.07 164.01C200.73 139.395 208.401 111.25 208.26 82.6002V45.7802C208.21 34.0602 202.16 28.3402 192.73 25.5202Z" fill="white"/>
</g>
<path d="M166.25 129.08H153.75V61.08C153.75 53.3794 150.691 45.9943 145.246 40.5491C139.801 35.104 132.416 32.045 124.715 32.045C117.014 32.045 109.629 35.104 104.184 40.5491C98.7391 45.9943 95.68 53.3794 95.68 61.08V129.08H83.18V61.08C83.0946 55.5713 84.1058 50.1007 86.1547 44.9865C88.2037 39.8723 91.2495 35.2168 95.1149 31.291C98.9802 27.3652 103.588 24.2476 108.67 22.1195C113.751 19.9914 119.206 18.8955 124.715 18.8955C130.224 18.8955 135.679 19.9914 140.76 22.1195C145.842 24.2476 150.45 27.3652 154.315 31.291C158.181 35.2168 161.226 39.8723 163.275 44.9865C165.324 50.1007 166.336 55.5713 166.25 61.08V129.08Z" fill="#D40020"/>
<g opacity="0.4">
<path opacity="0.4" d="M166.25 129.08H153.75V61.08C153.75 53.3794 150.691 45.9943 145.246 40.5491C139.801 35.104 132.416 32.045 124.715 32.045C117.014 32.045 109.629 35.104 104.184 40.5491C98.7391 45.9943 95.68 53.3794 95.68 61.08V129.08H83.18V61.08C83.0946 55.5713 84.1058 50.1007 86.1547 44.9865C88.2037 39.8723 91.2495 35.2168 95.1149 31.291C98.9802 27.3652 103.588 24.2476 108.67 22.1195C113.751 19.9914 119.206 18.8955 124.715 18.8955C130.224 18.8955 135.679 19.9914 140.76 22.1195C145.842 24.2476 150.45 27.3652 154.315 31.291C158.181 35.2168 161.226 39.8723 163.275 44.9865C165.324 50.1007 166.336 55.5713 166.25 61.08V129.08Z" fill="black"/>
</g>
<path d="M174.88 98.8203H74.55C71.3412 98.8203 68.74 101.422 68.74 104.63V164.83C68.74 168.039 71.3412 170.64 74.55 170.64H174.88C178.089 170.64 180.69 168.039 180.69 164.83V104.63C180.69 101.422 178.089 98.8203 174.88 98.8203Z" fill="#D40020"/>
<g opacity="0.5">
<path opacity="0.5" d="M134.07 125.38C134.071 123.638 133.586 121.931 132.67 120.45C131.754 118.969 130.442 117.773 128.883 116.996C127.324 116.22 125.58 115.893 123.845 116.054C122.111 116.215 120.456 116.857 119.067 117.907C117.677 118.957 116.608 120.373 115.98 121.998C115.352 123.622 115.189 125.39 115.511 127.101C115.832 128.813 116.625 130.401 117.799 131.687C118.974 132.973 120.484 133.906 122.16 134.38V148.38H127.27V134.38C129.23 133.828 130.956 132.649 132.184 131.024C133.412 129.399 134.074 127.417 134.07 125.38Z" fill="black"/>
</g>
<path d="M74.71 163.83C74.45 163.83 74.25 151.83 74.25 137.08C74.25 122.33 74.45 110.33 74.71 110.33C74.97 110.33 75.18 122.33 75.18 137.08C75.18 151.83 74.97 163.83 74.71 163.83Z" fill="#FAFAFA"/>
<path d="M117.39 137.37C117.39 137.37 116.95 137.23 116.29 136.75C115.365 136.059 114.552 135.229 113.88 134.29C112.713 132.75 111.901 130.97 111.502 129.079C111.103 127.188 111.127 125.233 111.572 123.352C112.017 121.471 112.873 119.712 114.078 118.201C115.282 116.69 116.806 115.464 118.54 114.61C119.577 114.075 120.69 113.701 121.84 113.5C122.25 113.388 122.68 113.364 123.1 113.43C123.1 113.61 121.33 113.78 118.9 115.19C117.314 116.067 115.929 117.266 114.833 118.71C113.738 120.154 112.957 121.811 112.54 123.575C112.122 125.338 112.079 127.17 112.411 128.952C112.744 130.733 113.445 132.426 114.47 133.92C115.348 135.148 116.324 136.302 117.39 137.37Z" fill="#FAFAFA"/>
<path d="M208.84 202.66C208.84 202.66 209.11 202.28 209.65 201.57L210.1 200.97C210.26 200.74 210.4 200.47 210.56 200.18C210.958 199.531 211.293 198.844 211.56 198.13C211.72 197.72 211.91 197.3 212.07 196.84C212.23 196.38 212.34 195.84 212.48 195.36C212.643 194.822 212.757 194.269 212.82 193.71C212.939 193.109 213.026 192.501 213.08 191.89C213.316 188.962 213.182 186.015 212.68 183.12C211.68 176.55 208.88 168.83 204.62 160.43C199.678 150.959 193.887 141.956 187.32 133.53C179.413 123.269 170.791 113.578 161.52 104.53C150.929 94.1072 139.614 84.4465 127.66 75.6202C121.33 70.9802 114.66 66.4702 107.66 62.2202C100.505 57.8594 93.0761 53.9647 85.4198 50.5602C77.5287 46.955 69.2175 44.3515 60.6798 42.8102C56.3216 42.0354 51.8713 41.9242 47.4799 42.4802C45.2835 42.8099 43.1411 43.4321 41.1098 44.3302C39.0648 45.24 37.2352 46.5718 35.7411 48.2383C34.2469 49.9048 33.1219 51.8684 32.4399 54.0002C31.7765 56.1201 31.4031 58.3201 31.3298 60.5402C31.2678 64.9666 31.8781 69.3769 33.1398 73.6202C35.6416 81.929 39.1759 89.8912 43.6599 97.3202C47.9131 104.544 52.6296 111.486 57.7799 118.1C62.7799 124.6 68.0398 130.71 73.3699 136.46C83.5001 147.339 94.3873 157.488 105.95 166.83C115.991 175.006 126.594 182.468 137.68 189.16C146.797 194.724 156.4 199.45 166.37 203.28C175.2 206.56 183.19 208.44 189.83 208.7C192.764 208.879 195.708 208.677 198.59 208.1C199.187 207.981 199.778 207.831 200.36 207.65C200.909 207.513 201.447 207.336 201.97 207.12L203.39 206.54C203.83 206.33 204.23 206.09 204.61 205.89C205.289 205.529 205.935 205.107 206.54 204.63C206.8 204.43 207.06 204.27 207.27 204.09L207.81 203.57L208.81 202.64L207.86 203.64L207.32 204.18C207.11 204.36 206.86 204.53 206.59 204.74C205.989 205.223 205.347 205.651 204.67 206.02C204.29 206.23 203.89 206.47 203.45 206.69L202.02 207.28C201.499 207.505 200.961 207.686 200.41 207.82C199.825 208.011 199.231 208.171 198.63 208.3C195.736 208.891 192.779 209.109 189.83 208.95C183.16 208.72 175.14 206.85 166.28 203.6C156.279 199.787 146.646 195.071 137.5 189.51C126.379 182.84 115.749 175.384 105.69 167.2C94.0985 157.862 83.1844 147.713 73.0299 136.83C67.6799 131.07 62.4299 124.95 57.3999 118.44C52.2341 111.812 47.501 104.857 43.2299 97.6202C38.7245 90.152 35.1703 82.15 32.6499 73.8002C31.3787 69.4973 30.7684 65.0263 30.8399 60.5402C30.911 58.2684 31.2946 56.0173 31.9799 53.8502C32.6743 51.6485 33.8274 49.619 35.3632 47.8953C36.8989 46.1716 38.7825 44.793 40.8898 43.8502C42.9635 42.9264 45.1538 42.2905 47.3999 41.9602C51.844 41.3893 56.3493 41.5006 60.7599 42.2902C69.341 43.8366 77.6933 46.4572 85.6199 50.0902C93.275 53.5103 100.698 57.4287 107.84 61.8202C114.84 66.0802 121.56 70.6002 127.84 75.2502C139.805 84.1068 151.13 93.7976 161.73 104.25C170.996 113.318 179.611 123.029 187.51 133.31C194.073 141.768 199.853 150.806 204.78 160.31C209.02 168.74 211.78 176.5 212.78 183.09C213.272 186.003 213.39 188.967 213.13 191.91C213.077 192.524 212.99 193.135 212.87 193.74C212.791 194.302 212.67 194.856 212.51 195.4C212.36 195.92 212.22 196.4 212.09 196.89C211.96 197.38 211.72 197.77 211.56 198.18C211.277 198.898 210.921 199.584 210.5 200.23C210.33 200.52 210.19 200.79 210.03 201.02L209.56 201.61C209.09 202.31 208.84 202.66 208.84 202.66Z" fill="#D40020"/>
<path d="M240.84 125.39C240.84 125.39 240.79 124.93 240.72 124.04C240.72 123.814 240.7 123.564 240.66 123.29C240.66 123.01 240.54 122.72 240.48 122.39C240.349 121.633 240.148 120.89 239.88 120.17C239.73 119.76 239.59 119.32 239.41 118.87C239.23 118.42 238.96 117.98 238.72 117.49C238.468 116.97 238.174 116.472 237.84 116C237.51 115.52 237.23 115 236.84 114.48C235.069 112.134 233.005 110.024 230.7 108.2C225.57 103.98 218.35 100.06 209.59 96.6302C199.596 92.8539 189.28 89.989 178.77 88.0702C166.044 85.6827 153.165 84.1957 140.23 83.6202C125.385 82.9062 110.508 83.2403 95.71 84.6202C87.9 85.3602 79.92 86.4402 71.85 87.9502C63.6069 89.4556 55.4698 91.4932 47.49 94.0502C39.1924 96.6107 31.2475 100.199 23.84 104.73C20.0977 107.06 16.7267 109.939 13.84 113.27C12.417 114.975 11.2328 116.866 10.32 118.89C9.40232 120.934 8.92783 123.15 8.92783 125.39C8.92783 127.631 9.40232 129.846 10.32 131.89C11.2365 133.913 12.4204 135.803 13.84 137.51C16.7275 140.827 20.0988 143.689 23.84 146C31.2429 150.536 39.1847 154.128 47.48 156.69C55.4592 159.25 63.5964 161.287 71.84 162.79C79.91 164.31 87.89 165.38 95.7 166.12C110.498 167.505 125.375 167.839 140.22 167.12C153.155 166.545 166.034 165.058 178.76 162.67C189.271 160.754 199.586 157.889 209.58 154.11C218.35 150.68 225.58 146.76 230.69 142.54C232.998 140.719 235.062 138.609 236.83 136.26C237.191 135.772 237.524 135.265 237.83 134.74C238.151 134.278 238.432 133.79 238.67 133.28L239.36 131.9C239.54 131.45 239.68 131.01 239.83 130.6C240.098 129.88 240.299 129.137 240.43 128.38C240.49 128.06 240.57 127.76 240.61 127.49C240.65 127.22 240.61 126.96 240.67 126.74C240.74 125.84 240.79 125.39 240.79 125.39C240.79 125.39 240.79 125.85 240.72 126.74C240.72 126.97 240.72 127.22 240.72 127.5C240.72 127.78 240.61 128.07 240.55 128.4C240.426 129.16 240.232 129.906 239.97 130.63C239.82 131.05 239.69 131.49 239.5 131.95L238.83 133.34C238.59 133.852 238.309 134.344 237.99 134.81C237.66 135.3 237.38 135.86 236.99 136.36C235.222 138.73 233.155 140.861 230.84 142.7C225.71 146.96 218.48 150.92 209.71 154.38C199.702 158.18 189.369 161.065 178.84 163C166.099 165.417 153.204 166.93 140.25 167.53C125.383 168.273 110.483 167.963 95.66 166.6C87.84 165.86 79.85 164.79 71.75 163.28C63.4872 161.775 55.3302 159.737 47.33 157.18C38.9927 154.606 31.0105 150.998 23.57 146.44C19.7621 144.084 16.3304 141.168 13.39 137.79C11.9336 136.043 10.7224 134.105 9.79004 132.03C8.85041 129.927 8.36475 127.649 8.36475 125.345C8.36475 123.041 8.85041 120.764 9.79004 118.66C10.7262 116.59 11.9371 114.656 13.39 112.91C16.3292 109.53 19.7651 106.617 23.58 104.27C31.0155 99.7118 38.9948 96.1069 47.33 93.5402C55.3286 90.9751 63.4859 88.9341 71.75 87.4302C79.84 85.9202 87.83 84.8502 95.65 84.1102C110.473 82.751 125.374 82.4436 140.24 83.1902C153.198 83.7912 166.097 85.3117 178.84 87.7402C189.364 89.684 199.69 92.5792 209.69 96.3902C218.47 99.8602 225.69 103.81 230.83 108.07C233.136 109.917 235.196 112.051 236.96 114.42C237.321 114.915 237.655 115.429 237.96 115.96C238.275 116.429 238.556 116.921 238.8 117.43L239.47 118.83C239.66 119.28 239.79 119.73 239.94 120.14C240.203 120.867 240.397 121.617 240.52 122.38C240.58 122.7 240.65 123 240.69 123.28C240.73 123.56 240.69 123.81 240.69 124.03C240.84 124.93 240.84 125.39 240.84 125.39Z" fill="#D40020"/>
<path d="M198.4 29.1998C198.4 29.1998 198 28.9598 197.26 28.4698L196.63 28.0598C196.39 27.9198 196.1 27.7998 195.81 27.6498C195.131 27.293 194.422 26.9985 193.69 26.7698C193.27 26.6398 192.84 26.4698 192.37 26.3398L190.84 25.9998C190.29 25.8793 189.732 25.8024 189.17 25.7698C188.58 25.7698 187.98 25.6198 187.34 25.6398C184.399 25.6051 181.466 25.9411 178.61 26.6398C172.14 28.0998 164.61 31.4098 156.54 36.2398C147.429 41.8204 138.844 48.2166 130.89 55.3498C121.205 63.9433 112.139 73.2096 103.76 83.0798C94.0924 94.3678 85.2337 106.324 77.2499 118.86C73.0499 125.49 69.0099 132.45 65.2499 139.76C61.3929 147.202 58.0193 154.884 55.1499 162.76C52.1048 170.883 50.0891 179.356 49.1499 187.98C48.6762 192.381 48.8751 196.829 49.7399 201.17C50.2128 203.341 50.9798 205.437 52.0199 207.4C53.0701 209.372 54.5252 211.1 56.29 212.47C58.0547 213.84 60.0892 214.821 62.2599 215.35C64.4197 215.869 66.6401 216.091 68.8599 216.01C73.2789 215.766 77.6352 214.852 81.7799 213.3C89.8996 210.229 97.6028 206.154 104.71 201.17C111.622 196.43 118.219 191.245 124.46 185.65C130.6 180.2 136.34 174.55 141.71 168.83C151.848 157.975 161.204 146.416 169.71 134.24C177.192 123.674 183.918 112.593 189.84 101.08C194.76 91.5979 198.813 81.691 201.95 71.4798C204.61 62.4798 205.95 54.3498 205.74 47.7098C205.715 44.7703 205.312 41.8462 204.54 39.0098C204.378 38.4198 204.185 37.8389 203.96 37.2698C203.792 36.7339 203.581 36.2123 203.33 35.7098C203.09 35.2298 202.87 34.7098 202.66 34.3298C202.45 33.9498 202.15 33.5198 201.92 33.1598C201.515 32.5046 201.049 31.8886 200.53 31.3198C200.32 31.0698 200.13 30.8298 199.94 30.6298L199.38 30.1198C198.72 29.5198 198.38 29.1998 198.38 29.1998L199.38 30.0798L199.94 30.5798C200.14 30.7798 200.33 31.0198 200.55 31.2698C201.082 31.8296 201.554 32.4428 201.96 33.0998C202.2 33.4698 202.47 33.8498 202.72 34.2698L203.4 35.6498C203.664 36.1537 203.884 36.6789 204.06 37.2198C204.24 37.7798 204.51 38.3398 204.65 38.9698C205.439 41.8145 205.863 44.7481 205.91 47.6998C206.14 54.3698 204.83 62.4998 202.19 71.5598C199.078 81.8014 195.041 91.7389 190.13 101.25C184.232 112.799 177.525 123.916 170.06 134.52C161.556 146.722 152.199 158.308 142.06 169.19C136.68 174.93 130.94 180.59 124.79 186.06C118.534 191.67 111.92 196.868 104.99 201.62C97.8649 206.632 90.1376 210.727 81.9899 213.81C77.7738 215.396 73.3385 216.324 68.8399 216.56C66.5696 216.638 64.2991 216.409 62.0899 215.88C59.85 215.334 57.7506 214.322 55.9291 212.909C54.1076 211.496 52.605 209.714 51.5199 207.68C50.4561 205.673 49.6722 203.53 49.1899 201.31C48.3177 196.919 48.1154 192.421 48.5899 187.97C49.5464 179.299 51.5856 170.783 54.6599 162.62C57.5413 154.743 60.9283 147.06 64.7999 139.62C68.5599 132.3 72.6099 125.33 76.7999 118.69C84.8044 106.145 93.6866 94.1813 103.38 82.8898C111.789 73.0173 120.885 63.751 130.6 55.1598C138.601 47.9993 147.24 41.5858 156.41 35.9998C164.53 31.1798 172.08 27.8898 178.59 26.4498C181.458 25.7378 184.406 25.4017 187.36 25.4498C187.975 25.4644 188.589 25.5111 189.2 25.5898C189.765 25.6256 190.327 25.7058 190.88 25.8298L192.4 26.1498C192.87 26.2898 193.3 26.4498 193.72 26.5898C194.454 26.8239 195.164 27.1286 195.84 27.4998C196.14 27.6498 196.42 27.7798 196.66 27.9198L197.28 28.3398C198.03 28.9298 198.4 29.1998 198.4 29.1998Z" fill="#D40020"/>
<path d="M4.31 180.66C6.69034 180.66 8.62 178.73 8.62 176.35C8.62 173.97 6.69034 172.04 4.31 172.04C1.92965 172.04 0 173.97 0 176.35C0 178.73 1.92965 180.66 4.31 180.66Z" fill="#D40020"/>
<path d="M250.62 39.6999C250.618 40.5519 250.364 41.3842 249.889 42.0917C249.414 42.7991 248.74 43.35 247.952 43.6747C247.165 43.9993 246.298 44.0833 245.463 43.9158C244.628 43.7484 243.861 43.3371 243.259 42.734C242.657 42.1308 242.248 41.3628 242.082 40.527C241.917 39.6913 242.003 38.8252 242.329 38.0382C242.656 37.2512 243.208 36.5787 243.917 36.1056C244.625 35.6324 245.458 35.3799 246.31 35.3799C246.877 35.3799 247.438 35.4917 247.962 35.7089C248.485 35.9261 248.961 36.2445 249.361 36.6458C249.762 37.0471 250.079 37.5234 250.295 38.0474C250.511 38.5715 250.621 39.133 250.62 39.6999Z" fill="#D40020"/>
<path d="M34.5799 187.48C34.5799 187.698 34.5151 187.911 34.3938 188.092C34.2725 188.273 34.1001 188.414 33.8985 188.497C33.6969 188.58 33.4752 188.601 33.2616 188.558C33.0479 188.515 32.852 188.409 32.6985 188.254C32.5451 188.099 32.4411 187.902 32.3998 187.688C32.3585 187.474 32.3817 187.253 32.4665 187.052C32.5513 186.851 32.6938 186.68 32.876 186.56C33.0583 186.441 33.2719 186.378 33.4899 186.38C33.7799 186.383 34.0571 186.5 34.2612 186.706C34.4654 186.912 34.5799 187.19 34.5799 187.48Z" fill="#D40020"/>
<path d="M57.97 66.6601C57.97 66.8776 57.9055 67.0903 57.7846 67.2712C57.6638 67.4521 57.492 67.5931 57.291 67.6763C57.09 67.7596 56.8688 67.7814 56.6554 67.7389C56.442 67.6965 56.2461 67.5917 56.0922 67.4379C55.9384 67.284 55.8336 67.088 55.7912 66.8747C55.7487 66.6613 55.7705 66.4401 55.8537 66.2391C55.937 66.0381 56.078 65.8663 56.2589 65.7454C56.4398 65.6246 56.6525 65.5601 56.87 65.5601C57.1618 65.5601 57.4416 65.676 57.6478 65.8822C57.8541 66.0885 57.97 66.3683 57.97 66.6601Z" fill="#D40020"/>
<path d="M228.96 125.39C228.96 125.608 228.895 125.821 228.774 126.002C228.653 126.183 228.48 126.324 228.279 126.407C228.077 126.49 227.855 126.511 227.642 126.468C227.428 126.425 227.232 126.319 227.079 126.164C226.925 126.009 226.821 125.813 226.78 125.598C226.739 125.384 226.762 125.163 226.847 124.962C226.931 124.761 227.074 124.59 227.256 124.471C227.438 124.351 227.652 124.288 227.87 124.29C228.014 124.29 228.157 124.319 228.289 124.374C228.422 124.429 228.543 124.511 228.644 124.613C228.746 124.715 228.826 124.836 228.88 124.97C228.934 125.103 228.961 125.246 228.96 125.39Z" fill="#D40020"/>
<path d="M244.19 74.3C244.192 74.5184 244.129 74.7324 244.009 74.9149C243.889 75.0973 243.717 75.2398 243.516 75.3243C243.314 75.4088 243.092 75.4314 242.878 75.3893C242.664 75.3472 242.467 75.2422 242.312 75.0878C242.158 74.9333 242.053 74.7364 242.011 74.5221C241.969 74.3078 241.991 74.0858 242.076 73.8844C242.16 73.683 242.303 73.5113 242.485 73.3912C242.668 73.2711 242.882 73.208 243.1 73.21C243.389 73.21 243.666 73.3248 243.871 73.5293C244.075 73.7337 244.19 74.0109 244.19 74.3Z" fill="#D40020"/>
</svg>
