<svg width="155" height="50" viewBox="0 0 155 50" fill="none" xmlns="http://www.w3.org/2000/svg">
<path d="M17.0748 29.4919C17.0748 26.3703 17.0748 23.2708 17.0748 20.1492C17.0748 19.8171 17.0748 19.8171 17.4011 19.8171C21.7731 19.8171 26.1233 19.8171 30.4954 19.8171C30.6694 19.8171 30.8651 19.8614 31.0174 19.9057C32.9098 20.6141 34.4759 21.7654 35.5417 23.5586C36.2377 24.732 36.5422 26.0382 36.5422 27.4108C36.5422 31.1745 36.5422 34.9159 36.5422 38.6796C36.5422 38.8124 36.4335 38.9674 36.3682 39.1002C36.129 39.543 35.7592 39.6537 35.2807 39.6316C34.2583 39.5873 33.236 39.6094 32.2137 39.6094C31.8222 39.6094 31.4089 39.2109 31.4089 38.8124C31.4089 34.9381 31.3872 31.0859 31.4307 27.2116C31.4307 26.481 31.1479 25.8832 30.7564 25.3076C30.0168 24.2449 28.951 23.8464 27.7329 23.8243C26.1233 23.8022 24.5137 23.8243 22.9042 23.8243C22.6866 23.8243 22.5344 23.8907 22.4039 24.0678C22.1646 24.4221 22.0123 24.7763 22.0123 25.2412C22.0341 29.6911 22.0123 34.1632 22.0123 38.6132C22.0123 39.1224 21.5773 39.5651 21.0553 39.5651C19.946 39.5651 18.8584 39.5651 17.7491 39.5651C17.4228 39.5651 17.053 39.2109 17.053 38.8567C17.053 38.5689 17.053 38.2589 17.053 37.9711C17.0748 35.2037 17.0748 32.3478 17.0748 29.4919Z" fill="white"/>
<path d="M80.7192 29.9595C80.7192 33.0811 80.7192 36.1805 80.7192 39.3021C80.7192 39.6342 80.7192 39.6342 81.0451 39.6342C85.4121 39.6342 89.1924 39.6342 93.5377 39.6342C93.7115 39.6342 93.907 39.5899 94.0591 39.5457C95.9493 38.8372 97.5136 37.686 98.5782 35.8927C99.2734 34.7194 99.5776 33.4132 99.5776 32.0405C99.5776 28.2769 99.5776 24.5354 99.5776 20.7718C99.5776 20.6389 99.469 20.484 99.4038 20.3511C99.1648 19.9084 98.7955 19.7977 98.3175 19.8198C97.2963 19.8641 96.2752 19.8419 95.2541 19.8419C94.863 19.8419 94.4502 20.2404 94.4502 20.6389C94.4502 24.5133 94.4285 28.3655 94.4719 32.2398C94.4719 32.9704 94.1895 33.5681 93.7984 34.1437C93.0597 35.2064 91.9951 35.6049 90.7785 35.6271C89.1707 35.6492 88.1496 35.6271 86.5418 35.6271C86.3246 35.6271 86.1725 35.5606 86.0421 35.3835C85.8031 35.0293 85.651 34.6751 85.651 34.2102C85.6728 29.7602 85.651 25.2881 85.651 20.8382C85.651 20.329 85.2165 19.8862 84.6951 19.8862C83.587 19.8862 82.5007 19.8862 81.3927 19.8862C81.0668 19.8862 80.6974 20.2404 80.6974 20.5947C80.6974 20.8825 80.6974 21.1924 80.6974 21.4802C80.7192 24.2697 80.7192 27.1035 80.7192 29.9595Z" fill="#EC1F38"/>
<path d="M67.3089 39.6121C66.4969 39.6121 65.7069 39.6563 64.895 39.6121C63.4905 39.5238 62.2835 38.9494 61.1863 38.0878C59.5185 36.8065 58.4432 35.1055 57.7848 33.1173C57.2362 31.3942 57.1045 29.6269 57.4118 27.8375C57.8726 25.1202 59.1015 22.8227 61.3838 21.1659C62.6346 20.2601 64.0172 19.8183 65.5533 19.8183C66.6505 19.8183 67.7258 19.8404 68.8231 19.8183C71.5223 19.7741 73.5851 20.9671 75.1871 23.0437C76.3063 24.4796 76.9866 26.1364 77.228 27.9479C77.6669 31.3279 76.9207 34.3765 74.6385 36.9612C73.629 38.0878 72.422 38.9494 70.9517 39.3691C70.3153 39.5459 69.635 39.6342 68.9767 39.6342C68.4281 39.6342 67.8575 39.6342 67.3089 39.6342V39.6121ZM61.7349 29.671C61.7349 29.8478 61.7349 30.0466 61.7349 30.2233C61.7568 31.2837 61.9105 32.322 62.481 33.2277C63.3369 34.5974 64.5877 35.3706 66.1678 35.5252C67.0675 35.6136 67.9453 35.6136 68.845 35.459C70.7323 35.1497 72.3343 33.5812 72.7073 31.6813C72.8829 30.8419 72.8609 30.0024 72.8609 29.1408C72.8609 28.4339 72.7732 27.727 72.5537 27.0422C72.2026 25.9597 71.5662 25.0761 70.5787 24.5238C69.6131 23.9936 68.5817 23.6622 67.4625 23.7064C67.1992 23.7064 66.9578 23.7064 66.6944 23.7064C66.1678 23.6843 65.663 23.7948 65.1583 23.9494C63.6222 24.4796 62.5469 25.4737 62.0202 27.0422C61.7568 27.9258 61.7349 28.8095 61.7349 29.671Z" fill="white"/>
<path d="M45.3083 28.9569C45.7951 28.9569 46.2377 28.9569 46.7024 28.9569C48.6276 28.9569 50.5307 28.9569 52.4559 28.9348C52.6108 28.9348 52.6993 29.0011 52.7878 29.1337C53.0091 29.4874 53.1198 29.8411 53.0976 30.2611C53.0755 31.0349 53.0976 31.8086 53.0976 32.6044C53.0976 32.936 52.7878 33.2455 52.4559 33.2455C50.1766 33.2455 47.9195 33.2455 45.6402 33.2455C45.3304 33.2455 45.3304 33.2455 45.3304 33.555C45.3304 35.4782 45.3304 37.4015 45.3304 39.3247C45.3304 39.6342 45.3304 39.6342 45.0206 39.6342C43.5158 39.6342 41.9889 39.6342 40.4841 39.6342C40.285 39.6342 40.1965 39.59 40.1965 39.3689C40.1965 35.434 40.1965 31.477 40.2186 27.5421C40.2186 26.083 40.4399 24.624 41.1038 23.2977C42.2545 20.9765 44.2018 19.8491 46.7688 19.827C48.9374 19.8049 51.106 19.827 53.2747 19.827C53.5623 19.827 53.8943 20.1586 53.8943 20.4238C53.8943 21.3523 53.9164 22.2808 53.8722 23.2092C53.85 23.5187 53.6287 23.8061 53.496 24.0935C53.4738 24.1377 53.3411 24.1377 53.2525 24.1377C51.6814 24.1377 50.1102 24.1377 48.5169 24.1377C46.7245 24.1377 45.3083 25.5304 45.3083 27.3431C45.3083 27.8073 45.3083 28.2716 45.3083 28.7358C45.3083 28.78 45.3083 28.8684 45.3083 28.9569Z" fill="white"/>
<path d="M8.52655 29.7493C8.52655 26.7265 8.52655 23.7037 8.52655 20.6808C8.52655 20.4823 8.59349 20.3719 8.72738 20.2175C8.99514 19.8865 9.32985 19.7983 9.75381 19.8203C10.7579 19.8424 11.7621 19.8203 12.7662 19.8203C13.3017 19.8203 13.7034 20.2175 13.7034 20.747C13.7034 26.7044 13.7034 32.6618 13.7034 38.6192C13.7034 38.884 13.5918 39.1488 13.5025 39.3915C13.4356 39.568 13.3017 39.6342 13.1009 39.6342C11.8513 39.6342 10.6017 39.6342 9.32985 39.6342C8.83895 39.6342 8.54887 39.3474 8.54887 38.862C8.52655 35.8171 8.52655 32.7942 8.52655 29.7493Z" fill="white"/>
<path d="M102.927 29.7493C102.927 26.7265 102.927 23.7037 102.927 20.6808C102.927 20.4823 102.994 20.3719 103.128 20.2175C103.396 19.8865 103.731 19.7983 104.155 19.8203C105.159 19.8424 106.163 19.8203 107.167 19.8203C107.702 19.8203 108.104 20.2175 108.104 20.747C108.104 26.7044 108.104 32.6618 108.104 38.6192C108.104 38.884 107.993 39.1488 107.903 39.3915C107.836 39.568 107.702 39.6342 107.502 39.6342C106.252 39.6342 105.002 39.6342 103.731 39.6342C103.24 39.6342 102.95 39.3474 102.95 38.862C102.927 35.8171 102.927 32.7942 102.927 29.7493Z" fill="#EC1F38"/>
<path d="M147.689 21.0334C147.711 20.6133 147.602 20.3037 147.297 20.0162C147.144 19.9056 147.035 19.8171 146.839 19.8171C143.855 19.8171 146.73 19.8171 143.746 19.8171C140.741 19.8171 137.756 19.8171 134.751 19.8171C134.271 19.8171 133.988 20.1046 133.988 20.5911C133.988 21.8295 133.988 23.0679 133.988 24.3284C133.988 24.3506 133.988 24.3948 133.988 24.4169C133.988 29.2157 133.988 33.8154 133.988 38.7027C133.988 39.2334 134.38 39.6315 134.903 39.6315C135.883 39.6315 136.863 39.6094 137.844 39.6315C138.257 39.6536 138.562 39.543 138.846 39.2334C138.954 39.0786 139.042 38.9681 139.042 38.769C139.042 35.7394 139.042 32.7097 139.042 29.6801C139.042 27.9994 139.042 26.4735 139.042 24.9255C141.416 24.9255 142.679 24.9255 146.774 24.9255C147.297 24.9255 147.689 24.5275 147.689 23.9967C147.689 23.0237 147.667 22.0286 147.689 21.0334Z" fill="#EC1F38"/>
<path d="M129.889 25.0252H117.165C116.79 25.0252 116.504 25.3341 116.504 25.6872V26.2831C116.504 26.6141 116.768 26.901 117.121 26.901H125.368C127.353 26.901 128.72 27.2541 129.514 28.0044L129.536 28.0264C130.286 28.7988 130.639 30.0567 130.639 31.9325V34.6027C130.639 36.4785 130.264 37.7364 129.536 38.5087L129.514 38.5308C128.72 39.2811 127.353 39.6342 125.368 39.6342H112.226C111.829 39.6342 111.498 39.3032 111.498 38.906V35.2647C111.498 34.8675 111.829 34.5365 112.226 34.5365H125.037C125.324 34.5365 125.545 34.3158 125.545 34.0289V32.6166C125.545 32.3076 125.28 32.0428 124.971 32.0428H116.68C114.695 32.0428 113.372 31.6677 112.601 30.9173C111.829 30.167 111.454 28.8871 111.454 27.0113V24.8486C111.454 22.9508 111.829 21.6709 112.623 20.9426C113.372 20.1923 114.695 19.8171 116.702 19.8171H129.911C130.308 19.8171 130.639 20.1482 130.639 20.5454V24.3411C130.616 24.6942 130.286 25.0252 129.889 25.0252Z" fill="#EC1F38"/>
<path d="M11.2628 17.9713C11.5769 17.9713 11.9146 17.9736 12.2051 17.9713C12.7661 17.9492 13.2372 17.7061 13.6636 17.3966C14.3142 16.8881 14.7405 16.247 15.0098 15.4733C15.2341 14.8101 15.279 14.1248 15.1668 13.4395C14.9873 12.3784 14.4937 11.4942 13.5962 10.8752C13.1026 10.5215 12.5641 10.3667 11.9583 10.3667C11.532 10.3667 11.1057 10.3667 10.6794 10.3667C9.62487 10.3446 8.79469 10.8088 8.16645 11.6047C7.71771 12.1573 7.44846 12.7984 7.35871 13.5058C7.17922 14.8101 7.4709 15.9818 8.39082 16.9765C8.79469 17.4187 9.26587 17.7503 9.84924 17.905C10.096 17.9713 10.3612 17.9736 10.6304 17.9736C10.8067 17.9736 11.0443 17.9713 11.2628 17.9713C11.2628 17.9934 11.2628 17.9934 11.2628 17.9713ZM13.1699 14.1469C13.1699 14.2132 13.1699 14.2796 13.1699 14.3459C13.1699 14.6996 13.1026 15.0533 12.9007 15.3628C12.609 15.827 12.1827 16.0923 11.6218 16.1365C11.3077 16.1586 11.016 16.1586 10.7018 16.1144C10.0512 16.0039 9.49024 15.4733 9.35562 14.8322C9.28831 14.5448 9.31075 14.2575 9.31075 13.9701C9.31075 13.7269 9.33319 13.4837 9.42293 13.2627C9.53512 12.8869 9.75949 12.5995 10.096 12.4005C10.4326 12.2237 10.7916 12.1131 11.173 12.1352C11.2628 12.1352 11.3525 12.1352 11.4423 12.1352C11.6218 12.1352 11.8013 12.1573 11.9808 12.2237C12.5193 12.4005 12.8783 12.7321 13.0577 13.2627C13.1699 13.5722 13.1699 13.8595 13.1699 14.1469Z" fill="#EC1F38"/>
</svg>
