<svg width="14" height="39" viewBox="0 0 14 39" fill="none" xmlns="http://www.w3.org/2000/svg">
<path d="M5.94494 38.364C5.4634 38.5112 5.06087 38.3032 4.73733 37.74C4.44785 37.1827 4.36354 36.4534 4.48439 35.5521C4.57277 34.2302 4.69446 32.6143 4.84948 30.7045C5.03855 28.8005 5.17648 27.395 5.26327 26.4878C5.35006 25.5806 5.495 23.8304 5.69807 21.2372C5.94295 18.6051 6.10884 16.3283 6.19573 14.4067C6.23604 13.7681 6.20828 12.6105 6.11245 10.9339C5.92247 6.15165 6.00563 2.73078 6.36193 0.671321C6.67782 0.264862 6.95499 0.0822581 7.19342 0.123509C8.07903 0.276727 8.59592 2.76392 8.7441 7.58508C8.89227 12.4062 8.7826 17.8053 8.41508 23.7822C8.08937 29.7203 7.74062 33.7638 7.36883 35.9128C7.35333 36.0024 7.30299 36.2934 7.21778 36.7858C7.14033 37.2336 6.98933 37.5994 6.7648 37.8833C6.57434 38.1731 6.30105 38.3333 5.94494 38.364Z" fill="#D40020"/>
</svg>
