<svg width="328" height="7" viewBox="0 0 328 7" fill="none" xmlns="http://www.w3.org/2000/svg">
<path d="M327.081 0.985183C329.042 1.43456 327.865 1.86666 323.551 2.28148C319.237 2.66172 313.158 2.86913 305.315 2.9037C293.941 3.04197 280.019 3.19753 263.547 3.37037C247.075 3.50864 234.918 3.61234 227.074 3.68148C219.23 3.75061 204.131 3.90617 181.777 4.14815C159.03 4.35555 139.421 4.58025 122.949 4.82222C117.459 4.89136 107.654 5.11605 93.5357 5.4963C53.1409 6.49876 23.9232 7 5.88278 7C1.96093 6.75802 -2.11541e-08 6.51605 -3.17312e-08 6.27408C-7.10174e-08 5.37531 20.3935 4.44198 61.1806 3.47408C101.968 2.50618 148.049 1.69383 199.425 1.03704C250.409 0.345682 285.313 1.83367e-06 304.138 1.01082e-06C304.922 9.76531e-07 307.472 8.65102e-07 311.786 6.76531e-07C315.707 5.05102e-07 319.041 0.0864204 321.786 0.259259C324.532 0.39753 326.296 0.639504 327.081 0.985183Z" fill="#D40020"/>
</svg>
