<svg width="140" height="45" viewBox="0 0 140 45" fill="none" xmlns="http://www.w3.org/2000/svg">
<g clip-path="url(#clip0)">
<path d="M15.4224 26.5427C15.4224 23.7333 15.4224 20.9438 15.4224 18.1343C15.4224 17.8354 15.4224 17.8354 15.7171 17.8354C19.666 17.8354 23.5953 17.8354 27.5442 17.8354C27.7014 17.8354 27.8782 17.8753 28.0157 17.9152C29.725 18.5528 31.1395 19.5889 32.1022 21.2028C32.7309 22.2588 33.0059 23.4344 33.0059 24.6698C33.0059 28.057 33.0059 31.4244 33.0059 34.8116C33.0059 34.9312 32.9077 35.0707 32.8487 35.1902C32.6326 35.5887 32.2986 35.6883 31.8664 35.6684C30.943 35.6286 30.0197 35.6485 29.0963 35.6485C28.7427 35.6485 28.3694 35.2898 28.3694 34.9312C28.3694 31.4443 28.3497 27.9773 28.389 24.4904C28.389 23.8329 28.1336 23.2949 27.78 22.7769C27.112 21.8205 26.1493 21.4618 25.0491 21.4419C23.5953 21.422 22.1415 21.4419 20.6876 21.4419C20.4912 21.4419 20.3537 21.5017 20.2358 21.6611C20.0197 21.9799 19.8821 22.2987 19.8821 22.7171C19.9018 26.722 19.8821 30.7469 19.8821 34.7519C19.8821 35.2101 19.4892 35.6086 19.0177 35.6086C18.0157 35.6086 17.0334 35.6086 16.0315 35.6086C15.7368 35.6086 15.4028 35.2898 15.4028 34.971C15.4028 34.712 15.4028 34.4331 15.4028 34.174C15.4224 31.6834 15.4224 29.1131 15.4224 26.5427Z" fill="black"/>
<path d="M72.9076 26.9635C72.9076 29.773 72.9076 32.5625 72.9076 35.3719C72.9076 35.6708 72.9076 35.6708 73.202 35.6708C77.1464 35.6708 80.5609 35.6708 84.4856 35.6708C84.6426 35.6708 84.8192 35.631 84.9566 35.5911C86.6639 34.9535 88.0768 33.9174 89.0384 32.3035C89.6663 31.2474 89.941 30.0719 89.941 28.8365C89.941 25.4492 89.941 22.0819 89.941 18.6946C89.941 18.5751 89.8429 18.4356 89.7841 18.316C89.5682 17.9175 89.2346 17.8179 88.8029 17.8378C87.8806 17.8777 86.9582 17.8578 86.0359 17.8578C85.6827 17.8578 85.3098 18.2164 85.3098 18.5751C85.3098 22.062 85.2902 25.5289 85.3295 29.0158C85.3295 29.6734 85.0744 30.2113 84.7211 30.7294C84.0539 31.6858 83.0924 32.0444 81.9934 32.0644C80.5413 32.0843 79.6189 32.0644 78.1668 32.0644C77.9706 32.0644 77.8332 32.0046 77.7154 31.8452C77.4996 31.5264 77.3622 31.2076 77.3622 30.7892C77.3818 26.7842 77.3622 22.7593 77.3622 18.7544C77.3622 18.2961 76.9697 17.8976 76.4988 17.8976C75.498 17.8976 74.5168 17.8976 73.516 17.8976C73.2216 17.8976 72.888 18.2164 72.888 18.5352C72.888 18.7942 72.888 19.0732 72.888 19.3322C72.9076 21.8428 72.9076 24.3932 72.9076 26.9635Z" fill="#EC1F38"/>
<path d="M60.7951 35.6509C60.0617 35.6509 59.3482 35.6907 58.6148 35.6509C57.3462 35.5714 56.2561 35.0545 55.265 34.2791C53.7586 33.1259 52.7874 31.595 52.1927 29.8056C51.6972 28.2548 51.5783 26.6642 51.8558 25.0537C52.272 22.6082 53.382 20.5405 55.4434 19.0493C56.5732 18.2342 57.8219 17.8365 59.2094 17.8365C60.2005 17.8365 61.1717 17.8564 62.1628 17.8365C64.6008 17.7968 66.464 18.8704 67.9109 20.7393C68.9218 22.0317 69.5363 23.5228 69.7543 25.1532C70.1507 28.1951 69.4768 30.9389 67.4154 33.2651C66.5036 34.2791 65.4135 35.0545 64.0854 35.4322C63.5106 35.5913 62.8962 35.6708 62.3015 35.6708C61.806 35.6708 61.2906 35.6708 60.7951 35.6708V35.6509ZM55.7605 26.704C55.7605 26.863 55.7605 27.042 55.7605 27.201C55.7804 28.1554 55.9191 29.0898 56.4345 29.905C57.2075 31.1377 58.3373 31.8336 59.7644 31.9727C60.5771 32.0523 61.3699 32.0523 62.1826 31.9131C63.8872 31.6347 65.3342 30.2231 65.6711 28.5132C65.8297 27.7577 65.8099 27.0022 65.8099 26.2268C65.8099 25.5906 65.7306 24.9543 65.5324 24.338C65.2152 23.3638 64.6404 22.5685 63.7485 22.0714C62.8763 21.5942 61.9447 21.296 60.9339 21.3358C60.696 21.3358 60.478 21.3358 60.2401 21.3358C59.7644 21.3159 59.3085 21.4153 58.8526 21.5545C57.4652 22.0317 56.4939 22.9264 56.0182 24.338C55.7804 25.1333 55.7605 25.9286 55.7605 26.704Z" fill="black"/>
<path d="M40.9235 26.0612C41.3633 26.0612 41.763 26.0612 42.1828 26.0612C43.9217 26.0612 45.6406 26.0612 47.3795 26.0413C47.5194 26.0413 47.5994 26.101 47.6793 26.2204C47.8792 26.5387 47.9791 26.857 47.9591 27.2351C47.9391 27.9314 47.9591 28.6278 47.9591 29.344C47.9591 29.6424 47.6793 29.921 47.3795 29.921C45.3208 29.921 43.2821 29.921 41.2234 29.921C40.9435 29.921 40.9435 29.921 40.9435 30.1995C40.9435 31.9304 40.9435 33.6614 40.9435 35.3923C40.9435 35.6708 40.9435 35.6708 40.6637 35.6708C39.3046 35.6708 37.9254 35.6708 36.5663 35.6708C36.3864 35.6708 36.3065 35.631 36.3065 35.4321C36.3065 31.8906 36.3065 28.3293 36.3264 24.7879C36.3264 23.4748 36.5263 22.1617 37.1259 20.9679C38.1653 18.8789 39.9242 17.8642 42.2427 17.8443C44.2015 17.8244 46.1603 17.8443 48.119 17.8443C48.3789 17.8443 48.6787 18.1427 48.6787 18.3815C48.6787 19.2171 48.6987 20.0527 48.6587 20.8883C48.6387 21.1669 48.4388 21.4255 48.3189 21.6842C48.2989 21.724 48.179 21.7239 48.099 21.7239C46.6799 21.7239 45.2608 21.7239 43.8217 21.7239C42.2027 21.7239 40.9235 22.9774 40.9235 24.6088C40.9235 25.0266 40.9235 25.4444 40.9235 25.8623C40.9235 25.902 40.9235 25.9816 40.9235 26.0612Z" fill="black"/>
<path d="M7.70135 26.7744C7.70135 24.0539 7.70135 21.3333 7.70135 18.6128C7.70135 18.4341 7.76182 18.3348 7.88275 18.1958C8.1246 17.8979 8.42692 17.8185 8.80985 17.8383C9.7168 17.8582 10.6238 17.8383 11.5307 17.8383C12.0144 17.8383 12.3772 18.1958 12.3772 18.6724C12.3772 24.034 12.3772 29.3957 12.3772 34.7573C12.3772 34.9956 12.2764 35.2339 12.1958 35.4524C12.1353 35.6112 12.0144 35.6708 11.833 35.6708C10.7044 35.6708 9.57572 35.6708 8.42692 35.6708C7.98352 35.6708 7.72151 35.4127 7.72151 34.9758C7.70136 32.2354 7.70135 29.5148 7.70135 26.7744Z" fill="black"/>
<path d="M92.9666 26.7744C92.9666 24.0539 92.9666 21.3333 92.9666 18.6128C92.9666 18.4341 93.0271 18.3348 93.148 18.1958C93.3899 17.8979 93.6922 17.8185 94.0751 17.8383C94.9821 17.8582 95.889 17.8383 96.796 17.8383C97.2797 17.8383 97.6425 18.1958 97.6425 18.6724C97.6425 24.034 97.6425 29.3957 97.6425 34.7573C97.6425 34.9956 97.5417 35.2339 97.4611 35.4524C97.4006 35.6112 97.2797 35.6708 97.0983 35.6708C95.9696 35.6708 94.841 35.6708 93.6922 35.6708C93.2488 35.6708 92.9868 35.4127 92.9868 34.9758C92.9666 32.2354 92.9666 29.5148 92.9666 26.7744Z" fill="#EC1F38"/>
<path d="M133.396 18.9301C133.416 18.552 133.318 18.2733 133.042 18.0146C132.905 17.9151 132.806 17.8354 132.629 17.8354C129.934 17.8354 132.531 17.8354 129.835 17.8354C127.12 17.8354 124.425 17.8354 121.71 17.8354C121.277 17.8354 121.022 18.0942 121.022 18.532C121.022 19.6466 121.022 20.7612 121.022 21.8956C121.022 21.9155 121.022 21.9553 121.022 21.9752C121.022 26.2941 121.022 30.4339 121.022 34.8324C121.022 35.3101 121.376 35.6684 121.848 35.6684C122.733 35.6684 123.619 35.6485 124.504 35.6684C124.878 35.6883 125.153 35.5888 125.409 35.3101C125.507 35.1708 125.586 35.0713 125.586 34.8922C125.586 32.1655 125.586 29.4388 125.586 26.7121C125.586 25.1995 125.586 23.8262 125.586 22.433C127.73 22.433 128.871 22.433 132.57 22.433C133.042 22.433 133.396 22.0747 133.396 21.5971C133.396 20.7214 133.377 19.8257 133.396 18.9301Z" fill="#EC1F38"/>
<path d="M117.319 22.5227H105.827C105.488 22.5227 105.229 22.8007 105.229 23.1185V23.6548C105.229 23.9527 105.468 24.2109 105.787 24.2109H113.236C115.028 24.2109 116.263 24.5287 116.98 25.204L117 25.2238C117.677 25.919 117.996 27.0511 117.996 28.7393V31.1425C117.996 32.8307 117.657 33.9628 117 34.6579L116.98 34.6778C116.263 35.353 115.028 35.6708 113.236 35.6708H101.365C101.007 35.6708 100.708 35.3729 100.708 35.0154V31.7383C100.708 31.3808 101.007 31.0829 101.365 31.0829H112.937C113.196 31.0829 113.395 30.8843 113.395 30.6261V29.355C113.395 29.0769 113.156 28.8386 112.877 28.8386H105.388C103.596 28.8386 102.401 28.5009 101.704 27.8256C101.007 27.1504 100.668 25.9984 100.668 24.3102V22.3638C100.668 20.6557 101.007 19.5038 101.724 18.8484C102.401 18.1731 103.596 17.8354 105.408 17.8354H117.339C117.697 17.8354 117.996 18.1334 117.996 18.4909V21.907C117.976 22.2248 117.677 22.5227 117.319 22.5227Z" fill="#EC1F38"/>
<path d="M10.1728 16.1742C10.4565 16.1742 10.7616 16.1762 11.024 16.1742C11.5306 16.1543 11.9562 15.9354 12.3412 15.6569C12.9289 15.1993 13.314 14.6223 13.5572 13.926C13.7598 13.3291 13.8004 12.7123 13.699 12.0955C13.5369 11.1405 13.0911 10.3447 12.2804 9.78763C11.8346 9.4693 11.3482 9.33003 10.801 9.33003C10.416 9.33003 10.0309 9.33003 9.64589 9.33003C8.6934 9.31013 7.94356 9.72794 7.37612 10.4442C6.9708 10.9416 6.72761 11.5186 6.64655 12.1552C6.48442 13.3291 6.74788 14.3836 7.57878 15.2789C7.94356 15.6768 8.36914 15.9752 8.89605 16.1145C9.11898 16.1742 9.35844 16.1762 9.60163 16.1762C9.76087 16.1762 9.97549 16.1742 10.1728 16.1742C10.1728 16.1941 10.1728 16.1941 10.1728 16.1742ZM11.8954 12.7322C11.8954 12.7919 11.8954 12.8516 11.8954 12.9113C11.8954 13.2296 11.8346 13.5479 11.6522 13.8265C11.3887 14.2443 11.0037 14.483 10.4971 14.5228C10.2133 14.5427 9.94988 14.5427 9.66616 14.5029C9.07845 14.4035 8.5718 13.926 8.45021 13.349C8.38941 13.0903 8.40968 12.8317 8.40968 12.573C8.40968 12.3542 8.42994 12.1353 8.51101 11.9364C8.61234 11.5981 8.81499 11.3395 9.11898 11.1604C9.42297 11.0013 9.74722 10.9018 10.0917 10.9217C10.1728 10.9217 10.2539 10.9217 10.3349 10.9217C10.4971 10.9217 10.6592 10.9416 10.8213 11.0013C11.3077 11.1604 11.6319 11.4589 11.7941 11.9364C11.8954 12.2149 11.8954 12.4736 11.8954 12.7322Z" fill="#EC1F38"/>
</g>
<defs>
<clipPath id="clip0">
<rect width="140" height="45" fill="white"/>
</clipPath>
</defs>
</svg>
