<?xml version="1.0" standalone="no"?>
<!DOCTYPE svg PUBLIC "-//W3C//DTD SVG 20010904//EN"
 "http://www.w3.org/TR/2001/REC-SVG-20010904/DTD/svg10.dtd">
<svg version="1.0" xmlns="http://www.w3.org/2000/svg"
 width="300.000000pt" height="300.000000pt" viewBox="0 0 300.000000 300.000000"
 preserveAspectRatio="xMidYMid meet">

<g transform="translate(0.000000,300.000000) scale(0.100000,-0.100000)"
fill="#000000" stroke="none">
<path d="M0 1500 l0 -1500 1500 0 1500 0 0 1500 0 1500 -1500 0 -1500 0 0
-1500z m1771 932 c123 -92 287 -141 420 -126 61 7 86 -1 132 -44 33 -31 35
-22 5 21 -46 67 -57 76 -90 66 -41 -11 -99 3 -150 36 -39 26 -40 28 -23 41 23
17 88 18 118 2 20 -10 21 -10 8 5 -7 9 -32 22 -54 28 -48 13 -112 72 -123 113
-8 34 -3 39 36 31 42 -9 96 -58 110 -99 10 -32 60 -90 60 -70 0 6 -5 15 -11
21 -6 6 -14 45 -17 85 l-5 73 28 -25 c46 -42 68 -98 68 -166 0 -50 4 -67 23
-90 l23 -29 1 72 c0 39 4 75 10 78 5 3 21 -18 36 -46 23 -47 25 -60 20 -118
-3 -36 -7 -73 -8 -81 0 -8 2 -24 6 -35 5 -15 4 -14 -5 3 -10 17 -21 22 -53 22
-23 0 -59 9 -81 20 -22 11 -41 20 -42 20 -2 0 -3 -75 -3 -167 0 -414 -95 -689
-309 -903 -87 -87 -380 -290 -418 -290 -14 0 -284 181 -362 243 -89 71 -176
184 -232 302 -85 178 -117 336 -126 613 -5 163 -8 182 -22 176 -9 -4 -39 -9
-67 -11 -40 -4 -55 -10 -63 -27 -10 -18 -11 -18 -5 -1 4 11 6 27 6 35 -1 8 -5
45 -8 81 -5 58 -3 71 20 118 15 28 31 49 36 46 6 -3 10 -39 10 -78 l1 -72 23
29 c19 23 23 40 23 90 0 68 22 124 68 166 l28 25 -5 -72 c-3 -40 -11 -80 -18
-88 -7 -9 -11 -18 -8 -21 8 -7 58 55 58 71 0 22 52 77 87 91 66 28 79 11 42
-56 -21 -37 -81 -80 -112 -80 -8 0 -25 -9 -38 -21 -23 -19 -23 -20 -2 -10 26
13 103 14 122 2 19 -12 8 -26 -45 -57 -42 -25 -107 -34 -153 -23 -13 4 -91
-86 -91 -105 0 -6 12 2 28 16 43 41 62 46 152 45 205 -1 370 87 576 306 l79
85 115 -113 c63 -61 140 -130 171 -153z m-1205 -177 c7 -19 14 -53 14 -75 0
-25 4 -39 10 -35 14 9 12 -5 -5 -35 -26 -46 -16 -43 33 9 43 46 52 51 90 51
23 0 42 -5 42 -10 0 -6 -21 -32 -47 -59 -50 -52 -109 -74 -142 -54 -33 20 -53
75 -47 134 5 56 21 109 31 109 3 0 13 -16 21 -35z m1914 -31 c14 -65 6 -124
-22 -159 -35 -45 -110 -26 -171 45 -20 24 -37 48 -37 53 0 6 20 7 48 4 41 -4
53 -11 90 -54 l44 -48 -16 39 c-19 45 -19 49 -6 41 6 -4 10 10 10 35 0 47 25
114 39 106 5 -4 15 -31 21 -62z m-1972 -174 c16 -32 22 -62 22 -107 0 -35 -4
-63 -10 -63 -18 0 -49 39 -55 67 -4 16 -8 37 -10 47 -7 33 7 107 19 103 6 -1
21 -23 34 -47z m2035 7 c3 -24 4 -52 2 -63 -2 -10 -6 -31 -10 -47 -6 -28 -37
-67 -55 -67 -16 0 -12 116 5 157 31 74 50 81 58 20z m-1853 -42 c0 -3 -9 -23
-20 -45 -21 -40 -69 -83 -107 -95 -20 -6 -23 -3 -23 24 0 45 75 121 118 121
18 0 32 -2 32 -5z m1711 -22 c31 -27 59 -77 59 -108 0 -40 -99 25 -130 85 -25
50 -25 50 9 50 17 0 43 -11 62 -27z m-1914 -142 c12 -18 27 -58 34 -89 l13
-57 6 45 c7 56 32 94 75 114 45 22 48 21 40 -16 -11 -53 -46 -106 -86 -132
-36 -24 -37 -25 -70 -7 -46 25 -70 69 -77 143 l-5 63 24 -16 c13 -9 34 -30 46
-48z m2090 1 c-6 -76 -28 -117 -74 -141 l-37 -19 -38 25 c-36 24 -70 79 -84
136 -5 23 -4 26 12 21 68 -22 103 -66 105 -130 0 -35 1 -36 9 -14 5 14 14 45
20 69 11 40 65 111 85 111 4 0 5 -26 2 -58z m-1936 -224 c-6 -20 -28 -50 -48
-68 -29 -26 -41 -31 -66 -26 -35 7 -72 38 -92 76 -16 32 -29 110 -18 110 26 0
83 -55 108 -104 16 -31 29 -56 31 -56 1 0 2 15 1 33 -1 43 27 99 61 119 l27
17 3 -32 c2 -18 -1 -48 -7 -69z m1786 32 c9 -19 16 -50 16 -67 -1 -18 0 -33 1
-33 2 0 15 25 31 56 25 49 82 104 108 104 11 0 -2 -78 -18 -110 -20 -38 -57
-69 -91 -76 -59 -12 -124 70 -124 156 l0 41 30 -17 c16 -10 37 -34 47 -54z
m-1752 -163 c-8 -56 -25 -96 -49 -116 -13 -11 -12 -18 9 -62 12 -28 25 -52 28
-55 3 -3 6 23 6 57 0 45 5 70 18 87 30 41 38 31 41 -51 2 -63 -1 -85 -16 -111
l-19 -33 33 -46 c35 -48 53 -62 34 -28 -15 29 -12 108 6 143 9 17 19 26 23 22
29 -32 40 -148 21 -200 -9 -24 -7 -31 17 -56 15 -17 36 -34 46 -40 17 -9 17
-8 3 21 -17 31 -20 112 -7 145 7 17 9 16 30 -12 24 -34 41 -119 34 -168 -4
-28 0 -34 44 -62 62 -40 72 -40 39 -1 -22 26 -26 40 -26 92 l0 61 31 -30 c39
-36 59 -81 59 -132 0 -44 6 -51 69 -75 47 -18 67 -16 32 2 -11 7 -28 25 -36
41 -17 33 -20 100 -5 100 25 0 100 -84 112 -124 6 -22 14 -44 17 -48 3 -4 37
-12 74 -18 68 -11 69 -10 107 20 21 16 41 30 45 30 4 0 24 -13 45 -30 21 -16
46 -30 55 -30 9 0 -8 -19 -41 -44 l-58 -44 -54 41 c-44 33 -65 42 -115 48 -58
7 -63 6 -93 -21 -43 -37 -99 -46 -169 -26 -30 9 -55 21 -55 26 0 16 77 50 117
51 l38 0 -43 19 c-42 19 -42 19 -78 -2 -43 -26 -117 -20 -171 13 -31 19 -33
23 -19 37 8 9 40 17 72 20 l56 5 -32 20 c-26 16 -35 18 -56 8 -54 -24 -132 -2
-183 52 l-23 26 36 7 c21 3 53 4 72 1 l34 -6 -18 25 c-14 20 -23 23 -54 18
-53 -8 -98 10 -144 57 -32 33 -36 41 -24 49 21 14 45 12 87 -5 47 -20 47 -20
26 15 -15 26 -23 30 -59 30 -53 0 -102 32 -132 88 l-23 42 34 0 c20 0 49 -10
71 -25 20 -14 39 -25 42 -25 2 0 -5 18 -16 40 -16 31 -26 40 -46 40 -38 0 -80
26 -104 64 -25 42 -42 96 -30 96 26 0 70 -26 111 -66 l46 -45 6 52 c5 38 14
60 34 81 23 24 28 26 36 13 5 -9 6 -40 2 -68z m1721 -19 c4 -26 10 -48 13 -48
4 0 23 16 42 36 31 33 83 64 108 64 12 0 0 -43 -23 -89 -20 -38 -70 -71 -108
-71 -22 0 -32 -8 -48 -40 -11 -22 -18 -40 -16 -40 3 0 22 11 42 25 22 15 51
25 71 25 l34 0 -23 -42 c-30 -56 -79 -88 -132 -88 -36 0 -44 -4 -59 -30 -21
-35 -21 -35 26 -15 42 17 66 19 87 5 12 -8 8 -16 -24 -49 -45 -46 -93 -66
-140 -57 -26 5 -37 1 -56 -18 l-23 -25 36 6 c20 3 52 2 73 -1 l36 -7 -23 -26
c-30 -31 -91 -63 -122 -63 -13 0 -38 5 -56 11 -26 9 -36 8 -62 -9 l-31 -19 56
-5 c32 -3 64 -11 72 -20 14 -14 12 -18 -19 -37 -54 -33 -128 -39 -171 -13 -36
21 -36 21 -78 2 l-43 -19 38 0 c40 -1 117 -35 117 -51 0 -5 -25 -17 -56 -26
-69 -20 -117 -12 -164 25 -31 25 -42 28 -95 25 l-60 -3 54 9 c61 9 64 11 79
66 12 40 87 124 112 124 15 0 12 -67 -5 -100 -8 -16 -25 -34 -36 -41 -35 -18
-15 -20 32 -2 63 24 69 31 69 75 0 47 19 94 54 131 15 15 29 27 31 27 3 0 5
-27 5 -59 0 -49 -4 -65 -26 -90 -33 -39 -23 -39 39 1 48 30 49 33 43 69 -8 49
9 124 36 162 20 28 22 29 29 11 13 -34 9 -114 -7 -146 l-16 -31 29 21 c53 38
65 56 53 86 -19 52 -8 169 21 200 4 4 14 -5 23 -22 18 -35 21 -114 6 -143 -19
-34 -1 -20 34 28 l33 46 -19 33 c-15 26 -18 48 -16 111 2 43 7 78 13 77 26 -2
46 -52 46 -115 l1 -64 28 55 c27 53 28 56 10 75 -9 11 -22 29 -28 41 -15 28
-26 119 -18 140 6 15 10 14 36 -11 22 -21 32 -42 36 -77z m-1822 -881 c8 -13
7 -24 -4 -44 -17 -30 -78 -75 -94 -70 -22 7 -15 25 11 30 37 7 85 52 81 75 -3
13 -13 17 -46 16 -47 -1 -110 -38 -145 -86 -24 -32 -13 -53 34 -63 33 -7 30
-25 -5 -25 -12 0 -44 -14 -70 -30 -132 -84 -144 -172 -18 -135 57 17 212 111
212 129 0 21 46 57 76 59 23 2 29 -2 29 -17 0 -11 -7 -22 -15 -24 -13 -5 -13
-3 -1 11 18 23 5 21 -36 -4 -30 -19 -41 -47 -16 -42 8 2 9 -9 4 -48 -2 -12
-61 -31 -77 -25 -15 6 -15 8 1 26 28 31 10 24 -58 -22 -68 -46 -143 -78 -184
-78 -32 0 -63 26 -63 52 0 30 76 104 133 129 l53 23 -25 22 c-23 20 -24 23
-11 53 33 81 199 144 234 88z m1154 7 c12 -8 22 -22 22 -31 0 -21 -76 -96 -92
-91 -22 8 -22 38 0 38 27 0 72 38 72 60 0 23 -31 31 -74 19 -48 -13 -149 -83
-192 -132 -38 -43 -84 -130 -84 -158 0 -31 36 -52 77 -46 58 10 199 83 223
117 28 40 122 85 147 71 16 -9 14 -10 -10 -11 -20 0 -44 -14 -80 -49 -29 -27
-48 -53 -44 -57 4 -4 16 1 27 11 11 10 23 16 26 12 3 -3 -12 -17 -33 -31 -37
-26 -39 -26 -53 -8 -14 18 -16 17 -58 -11 -130 -88 -252 -88 -252 0 0 101 137
247 275 295 62 22 75 22 103 2z m816 -104 c-5 -5 -25 -12 -44 -15 -26 -4 -30
-3 -15 4 12 5 27 16 34 25 10 12 17 14 25 6 6 -6 7 -13 0 -20z m89 -7 c4 -3
-2 -13 -14 -21 -23 -16 -32 -12 -23 12 6 16 25 21 37 9z m-1704 -54 c-43 -11
-66 -27 -99 -69 -42 -53 -24 -51 46 6 63 51 89 48 49 -6 -14 -19 -25 -35 -25
-37 0 -12 26 4 72 46 58 52 106 81 126 74 15 -6 16 -30 0 -39 -8 -5 -9 -2 -5
9 3 10 3 17 -1 17 -15 0 -83 -63 -97 -91 -15 -27 -14 -29 4 -29 11 0 39 16 63
35 97 78 122 95 142 95 18 0 17 -3 -9 -20 -53 -35 -106 -120 -74 -120 20 0 89
77 89 99 0 11 6 21 13 21 16 0 56 -29 41 -30 -6 0 -31 -20 -56 -44 -52 -52
-95 -68 -114 -42 -7 10 -10 24 -7 32 3 9 -15 1 -41 -17 -43 -28 -45 -32 -29
-44 17 -13 17 -14 -2 -35 -19 -21 -66 -50 -82 -50 -4 0 9 11 30 25 36 25 51
53 22 41 -16 -6 -21 9 -6 19 6 3 0 16 -12 29 l-22 23 -33 -20 c-28 -17 -33
-17 -38 -3 -3 9 -3 23 0 31 3 10 -12 3 -40 -16 -37 -25 -48 -29 -55 -18 -16
25 -10 39 35 84 44 43 97 67 126 57 10 -4 6 -8 -11 -13z m1271 -3 c0 -2 -8 -2
-19 1 -27 7 -74 -21 -110 -64 -17 -20 -29 -39 -26 -41 5 -5 61 33 97 66 39 36
55 18 22 -25 -14 -19 -24 -37 -21 -40 8 -8 72 44 102 83 14 19 33 34 41 34 19
0 18 -6 -10 -43 -14 -18 -25 -36 -25 -40 0 -4 -11 -21 -25 -37 -24 -29 -44
-26 -32 5 8 21 -2 18 -36 -10 -23 -20 -33 -23 -44 -14 -10 8 -11 16 -3 30 14
27 4 24 -41 -12 -40 -33 -54 -32 -63 1 -6 25 80 106 127 119 26 7 66 -1 66
-13z m-1483 3 c8 -8 17 -8 33 1 27 14 50 6 50 -18 0 -46 -107 -132 -140 -112
-8 5 -4 9 14 14 25 6 101 94 91 104 -3 3 -19 -4 -35 -16 -37 -27 -49 -28 -25
-2 10 11 13 20 7 20 -6 0 -16 -9 -22 -20 -6 -11 -8 -20 -4 -20 3 0 -14 -22
-38 -49 -44 -49 -108 -164 -108 -195 0 -9 -4 -16 -10 -16 -43 0 43 189 134
297 22 25 36 29 53 12z m1227 2 c3 -4 -6 -19 -19 -31 -14 -13 -25 -28 -25 -34
0 -5 12 2 28 16 85 79 126 72 66 -12 -36 -50 -36 -52 -13 -46 l24 7 -24 -21
c-18 -16 -27 -18 -37 -9 -19 15 -18 20 11 63 14 20 25 39 25 42 0 11 -100 -71
-111 -92 -18 -34 -33 -30 -25 7 l6 31 -36 -32 c-43 -37 -59 -35 -59 9 -1 24 7
38 32 57 42 32 52 14 16 -33 -24 -32 -25 -36 -8 -30 11 4 43 32 70 61 49 53
69 64 79 47z m439 3 c3 -3 -10 -28 -30 -55 -19 -28 -33 -52 -30 -56 7 -7 67
35 67 48 0 5 19 22 42 39 41 30 81 39 93 20 9 -15 -53 -70 -86 -77 -26 -5 -46
-29 -34 -41 10 -11 72 27 127 77 66 60 84 52 33 -15 -20 -26 -33 -49 -31 -52
3 -2 22 8 41 24 20 16 54 44 76 62 40 31 100 44 113 23 3 -4 -5 -6 -17 -4 -27
5 -80 -30 -115 -74 -35 -46 -12 -41 53 12 63 52 90 51 49 -2 -34 -44 -24 -53
21 -19 19 15 35 25 35 22 0 -12 -93 -75 -102 -70 -6 4 -8 17 -5 30 5 30 2 30
-35 -1 -34 -29 -53 -32 -66 -8 -9 15 -12 14 -37 -5 -32 -25 -49 -20 -41 14 7
27 -5 32 -23 10 -18 -22 -77 -47 -95 -40 -9 3 -16 12 -16 20 0 19 -7 18 -37
-6 -47 -37 -59 4 -18 64 24 35 20 51 -5 20 -8 -8 -23 -20 -34 -26 -28 -14 -13
2 39 41 40 30 56 36 68 25z"/>
<path d="M1461 2453 c-41 -53 -186 -173 -253 -208 -44 -23 -104 -43 -175 -58
l-108 -22 -3 -110 c-11 -372 94 -666 291 -814 71 -54 259 -171 274 -171 7 0
59 30 115 66 265 170 353 282 414 527 22 87 27 131 31 305 3 113 2 202 -3 202
-35 0 -198 33 -229 46 -73 30 -150 86 -241 176 l-92 89 -21 -28z m242 -202
c78 -53 149 -81 241 -93 l86 -11 0 -136 c0 -292 -59 -496 -190 -658 -51 -63
-129 -124 -269 -212 l-83 -52 -76 47 c-272 170 -379 306 -437 558 -22 94 -36
281 -29 372 l7 83 56 6 c153 17 260 74 396 210 l80 81 85 -81 c47 -44 107 -95
133 -114z"/>
<path d="M1459 2394 c-127 -139 -331 -253 -452 -254 -43 0 -50 -33 -44 -190 9
-206 50 -379 117 -497 60 -105 187 -216 362 -317 l47 -27 83 51 c133 83 203
136 252 192 126 145 190 366 184 642 l-3 140 -70 12 c-143 25 -229 71 -354
190 -49 46 -91 84 -93 84 -3 0 -15 -12 -29 -26z m49 -104 c7 -11 22 -20 34
-20 20 0 20 -1 5 -18 -10 -10 -17 -27 -17 -38 0 -16 -7 -19 -40 -19 -35 0 -40
3 -40 22 0 12 -4 25 -10 28 -17 10 -11 25 9 25 11 0 23 9 26 20 3 11 9 20 13
20 4 0 13 -9 20 -20z m-137 -90 c23 0 24 -13 4 -30 -9 -7 -13 -20 -10 -29 4
-13 -4 -16 -38 -17 -40 -1 -43 1 -39 21 2 13 -1 26 -7 29 -18 11 -13 26 8 26
12 0 23 9 27 22 l7 23 15 -23 c8 -12 23 -22 33 -22z m330 0 c23 0 24 -13 4
-30 -9 -7 -13 -20 -10 -29 4 -13 -4 -16 -38 -17 -40 -1 -43 1 -39 21 2 13 -1
26 -7 29 -18 11 -13 26 8 26 12 0 23 9 27 22 l7 23 15 -23 c8 -12 23 -22 33
-22z m-484 -90 c14 0 14 -2 -1 -19 -12 -13 -15 -27 -11 -40 6 -19 4 -20 -18
-12 -14 6 -29 6 -38 0 -22 -14 -27 -11 -22 15 3 13 0 27 -6 30 -16 10 -13 26
4 26 8 0 20 9 27 20 12 19 12 19 31 0 10 -11 25 -20 34 -20z m654 0 c23 0 24
-7 4 -27 -10 -9 -13 -23 -9 -36 5 -17 3 -19 -12 -12 -23 9 -34 9 -55 1 -13 -6
-16 -2 -12 17 3 14 0 28 -6 31 -16 10 -13 26 4 26 8 0 20 9 27 20 l13 21 14
-21 c7 -11 22 -20 32 -20z m-656 -148 c-30 -6 -45 -22 -45 -46 0 -44 21 -48
61 -12 87 80 254 65 209 -18 -22 -43 -91 -70 -161 -63 -60 5 -60 5 -46 -16 12
-18 22 -21 66 -18 41 2 52 -1 49 -11 -3 -9 -24 -13 -64 -13 -95 0 -170 -60
-181 -144 -7 -52 10 -79 64 -103 78 -34 181 -4 224 66 24 40 24 73 -1 86 -27
14 -67 -5 -51 -24 12 -14 5 -26 -16 -26 -18 0 -16 30 4 52 35 39 93 12 93 -44
0 -75 -78 -137 -173 -138 -62 0 -105 19 -145 64 -26 29 -32 45 -32 81 0 66 43
107 142 139 15 4 15 8 -2 42 -11 20 -27 45 -36 55 -36 39 -1 119 44 101 15 -6
15 -7 -3 -10z m636 -182 c50 -27 -1 -139 -83 -181 -23 -12 -67 -24 -99 -26
-54 -5 -57 -7 -63 -36 -12 -60 -7 -113 14 -135 52 -55 180 7 183 90 2 30 0 33
-28 33 -25 0 -30 -3 -27 -22 3 -23 -12 -32 -22 -14 -10 16 4 38 31 50 52 24
80 -36 48 -100 -22 -42 -71 -69 -126 -69 -38 0 -50 5 -75 31 -27 28 -29 36
-29 102 l0 72 -40 20 c-67 33 -74 103 -14 146 36 25 108 36 135 20 15 -9 11
-10 -22 -5 -77 11 -154 -44 -140 -101 6 -22 57 -65 78 -65 3 0 16 17 29 38 45
76 120 135 192 152 18 5 33 8 35 9 2 1 12 -4 23 -9z"/>
<path d="M1290 1923 c-36 -19 -70 -66 -57 -80 5 -4 34 -8 65 -8 75 0 135 34
130 74 -3 24 -7 26 -53 29 -33 2 -62 -4 -85 -15z"/>
<path d="M1765 1754 c-16 -8 -43 -27 -59 -42 -30 -28 -86 -109 -86 -125 0 -15
98 2 140 23 64 33 112 105 96 145 -7 19 -53 19 -91 -1z"/>
<path d="M787 2273 c-2 -5 -5 -71 -6 -148 -2 -156 18 -353 51 -482 22 -90 37
-108 19 -23 -7 30 -11 171 -11 350 0 276 1 299 18 303 9 3 -2 5 -25 6 -23 0
-44 -2 -46 -6z m25 -140 c-4 -236 -8 -259 -10 -65 -1 105 1 192 6 192 4 0 6
-57 4 -127z m5 -325 c-3 -7 -5 -2 -5 12 0 14 2 19 5 13 2 -7 2 -19 0 -25z m10
-40 c-3 -8 -6 -5 -6 6 -1 11 2 17 5 13 3 -3 4 -12 1 -19z"/>
<path d="M2118 2272 c10 -7 12 -78 10 -330 -2 -177 0 -322 3 -322 8 0 36 136
49 240 6 47 10 159 8 250 l-3 165 -40 3 c-25 1 -35 -1 -27 -6z m52 -32 c0 -11
-2 -20 -4 -20 -2 0 -6 9 -9 20 -3 11 -1 20 4 20 5 0 9 -9 9 -20z m-3 -322 c-2
-13 -4 -5 -4 17 -1 22 1 32 4 23 2 -10 2 -28 0 -40z"/>
<path d="M2121 1594 c0 -11 3 -14 6 -6 3 7 2 16 -1 19 -3 4 -6 -2 -5 -13z"/>
<path d="M520 365 c-9 -11 -9 -15 -1 -15 7 0 9 -5 5 -12 -5 -9 -2 -9 9 1 18
14 23 41 8 41 -5 0 -14 -7 -21 -15z"/>
<path d="M2460 411 c-19 -16 -32 -32 -29 -35 6 -7 79 44 79 56 0 14 -14 8 -50
-21z"/>
</g>
</svg>
