<svg width="21" height="64" viewBox="0 0 21 64" fill="none" xmlns="http://www.w3.org/2000/svg">
<path d="M18.9582 1.05178C19.7703 3.78592 20.1654 6.72497 20.708 9.53011C20.791 9.88863 20.3972 10.2457 20.1407 10.218C18.6505 10.0074 17.0617 9.88615 15.7215 9.19248L15.6723 9.23711C9.34009 14.1977 7.30704 25.0649 5.93106 32.9066C4.31454 41.9209 3.8308 51.5567 6.71834 59.9578C7.20074 60.9087 7.71943 61.9134 8.33657 62.8289C8.62699 63.2597 8.08552 63.7506 7.74587 63.3645C7.63696 63.2029 7.52806 63.0414 7.41915 62.8798C7.22225 63.0583 6.96566 63.0307 6.78415 62.7614C6.43405 62.1245 6.18239 61.3982 5.88152 60.7166C-3.56269 45.7661 0.253143 19.6604 12.6315 6.96183C11.6076 6.50193 10.5968 5.94355 9.52363 5.52819C9.02336 5.37457 9.16313 4.64048 9.54401 4.3819C12.2593 2.52711 15.3458 1.81112 18.2635 0.727225C18.4967 0.602614 18.8388 0.639482 18.9582 1.05178ZM10.9098 4.87866C11.6772 5.31084 12.346 5.83243 13.1625 6.22005C13.4426 6.40005 13.44 6.74933 13.3286 6.93709C13.4375 7.09864 13.4117 7.29569 13.3003 7.48335C2.98757 20.3046 -0.644802 37.741 3.83392 52.8555C2.98918 46.0728 3.77439 38.7666 4.94602 32.1513C5.79945 27.2993 6.98219 22.5829 8.66511 18.0202C9.99852 14.4685 11.9952 10.4889 15.2705 8.99406C14.8324 8.69716 15.2779 7.94616 15.6926 8.09073C16.9497 8.42596 18.1704 8.70733 19.4041 8.89022C18.9678 6.59608 18.581 4.25725 17.9607 2.04315C15.6311 2.94051 13.1564 3.62262 10.9098 4.87866Z" fill="#E0B246"/>
</svg>
