<svg width="21" height="64" viewBox="0 0 21 64" fill="none" xmlns="http://www.w3.org/2000/svg">
<path d="M2.04176 1.05177C1.22964 3.78592 0.834588 6.72497 0.292001 9.53011C0.208939 9.88862 0.602742 10.2457 0.859324 10.218C2.34952 10.0074 3.93824 9.88615 5.27845 9.19248L5.32768 9.23711C11.6599 14.1977 13.6929 25.0649 15.0689 32.9066C16.6854 41.9209 17.1692 51.5567 14.2816 59.9578C13.7992 60.9087 13.2805 61.9134 12.6634 62.8289C12.373 63.2597 12.9145 63.7506 13.2541 63.3645C13.363 63.2029 13.4719 63.0414 13.5808 62.8798C13.7777 63.0583 14.0343 63.0307 14.2158 62.7614C14.5659 62.1245 14.8176 61.3982 15.1185 60.7166C24.5626 45.7662 20.7468 19.6604 8.3685 6.96183C9.39237 6.50193 10.4032 5.94356 11.4763 5.5282C11.9766 5.37457 11.8368 4.64048 11.456 4.3819C8.74063 2.52712 5.65418 1.81112 2.73644 0.72722C2.50331 0.602612 2.1612 0.639483 2.04176 1.05177ZM10.0901 4.87866C9.32275 5.31084 8.65399 5.83243 7.83748 6.22005C7.55738 6.40005 7.55999 6.74934 7.67136 6.93709C7.56245 7.09864 7.58824 7.29569 7.69967 7.48335C18.0124 20.3046 21.6448 37.741 17.166 52.8555C18.0108 46.0728 17.2256 38.7666 16.0539 32.1513C15.2005 27.2993 14.0178 22.5829 12.3349 18.0202C11.0014 14.4685 9.00472 10.4889 5.72947 8.99406C6.16757 8.69716 5.72208 7.94616 5.30736 8.09073C4.05029 8.42595 2.82952 8.70733 1.59583 8.89022C2.03214 6.59608 2.419 4.25724 3.03928 2.04315C5.36883 2.94051 7.8436 3.62263 10.0901 4.87866Z" fill="#E0B246"/>
</svg>
